<svg xmlns="http://www.w3.org/2000/svg" xmlns:xlink="http://www.w3.org/1999/xlink" version="1.1" width="256" height="256" viewBox="0 0 256 256" xml:space="preserve">

<defs>
</defs>
<g style="stroke: none; stroke-width: 0; stroke-dasharray: none; stroke-linecap: butt; stroke-linejoin: miter; stroke-miterlimit: 10; fill: none; fill-rule: nonzero; opacity: 1;" transform="translate(1.4065934065934016 1.4065934065934016) scale(2.81 2.81)" >
	<path d="M 9.704 33.071 V 2.78 c 0 -0.983 0.797 -1.78 1.78 -1.78 h 67.03 c 0.983 0 1.78 0.797 1.78 1.78 v 30.29" style="stroke: none; stroke-width: 1; stroke-dasharray: none; stroke-linecap: butt; stroke-linejoin: miter; stroke-miterlimit: 10; fill: rgb(255,252,240); fill-rule: nonzero; opacity: 1;" transform=" matrix(1 0 0 1 0 0) " stroke-linecap="round" />
	<path d="M 4.251 85.983 V 36.088 c 0 -1.666 1.351 -3.017 3.017 -3.017 h 2.586 c 2.43 0 4.399 -1.97 4.399 -4.399 v 0 c 0 -2.43 1.97 -4.399 4.399 -4.399 h 21.315 c 1.641 0 3.145 0.913 3.903 2.369 l 2.113 4.061 c 0.757 1.455 2.262 2.369 3.903 2.369 h 32.847 c 1.666 0 3.017 1.351 3.017 3.017 v 18.456 v 31.439 c 0 1.666 -1.351 3.017 -3.017 3.017 H 7.268 C 5.601 89 4.251 87.649 4.251 85.983 z" style="stroke: none; stroke-width: 1; stroke-dasharray: none; stroke-linecap: butt; stroke-linejoin: miter; stroke-miterlimit: 10; fill: rgb(113,124,255); fill-rule: nonzero; opacity: 1;" transform=" matrix(1 0 0 1 0 0) " stroke-linecap="round" />
	<line x1="-7.501499999999999" y1="0" x2="7.501499999999999" y2="0" style="stroke: none; stroke-width: 1; stroke-dasharray: none; stroke-linecap: butt; stroke-linejoin: miter; stroke-miterlimit: 10; fill: rgb(255,196,49); fill-rule: nonzero; opacity: 1;" transform=" matrix(1 0 0 1 0 0) "/>
	<line x1="-13.1175" y1="0" x2="13.1175" y2="0" style="stroke: none; stroke-width: 1; stroke-dasharray: none; stroke-linecap: butt; stroke-linejoin: miter; stroke-miterlimit: 10; fill: rgb(255,196,49); fill-rule: nonzero; opacity: 1;" transform=" matrix(1 0 0 1 0 0) "/>
	<path d="M 82.732 90 H 7.268 c -2.215 0 -4.017 -1.803 -4.017 -4.018 V 36.088 c 0 -2.215 1.802 -4.017 4.017 -4.017 h 2.586 c 1.874 0 3.399 -1.525 3.399 -3.399 c 0 -2.977 2.422 -5.399 5.399 -5.399 h 21.315 c 2.021 0 3.856 1.114 4.79 2.907 l 2.113 4.062 c 0.587 1.129 1.743 1.83 3.016 1.83 h 32.847 c 2.215 0 4.017 1.802 4.017 4.017 v 49.895 C 86.749 88.197 84.947 90 82.732 90 z M 7.268 34.071 c -1.112 0 -2.017 0.905 -2.017 2.017 v 49.895 C 5.25 87.095 6.155 88 7.268 88 h 75.465 c 1.112 0 2.017 -0.905 2.017 -2.018 V 36.088 c 0 -1.112 -0.904 -2.017 -2.017 -2.017 H 49.886 c -2.021 0 -3.857 -1.114 -4.79 -2.907 l -2.113 -4.062 c -0.587 -1.129 -1.743 -1.83 -3.015 -1.83 H 18.652 c -1.875 0 -3.399 1.525 -3.399 3.399 c 0 2.977 -2.422 5.399 -5.399 5.399 H 7.268 z" style="stroke: none; stroke-width: 1; stroke-dasharray: none; stroke-linecap: butt; stroke-linejoin: miter; stroke-miterlimit: 10; fill: rgb(0,0,0); fill-rule: nonzero; opacity: 1;" transform=" matrix(1 0 0 1 0 0) " stroke-linecap="round" />
	<path d="M 29.338 74.973 H 14.336 c -0.552 0 -1 -0.447 -1 -1 s 0.448 -1 1 -1 h 15.002 c 0.552 0 1 0.447 1 1 S 29.891 74.973 29.338 74.973 z" style="stroke: none; stroke-width: 1; stroke-dasharray: none; stroke-linecap: butt; stroke-linejoin: miter; stroke-miterlimit: 10; fill: rgb(0,0,0); fill-rule: nonzero; opacity: 1;" transform=" matrix(1 0 0 1 0 0) " stroke-linecap="round" />
	<path d="M 40.571 81.712 H 14.336 c -0.552 0 -1 -0.447 -1 -1 s 0.448 -1 1 -1 h 26.235 c 0.552 0 1 0.447 1 1 S 41.124 81.712 40.571 81.712 z" style="stroke: none; stroke-width: 1; stroke-dasharray: none; stroke-linecap: butt; stroke-linejoin: miter; stroke-miterlimit: 10; fill: rgb(0,0,0); fill-rule: nonzero; opacity: 1;" transform=" matrix(1 0 0 1 0 0) " stroke-linecap="round" />
	<path d="M 80.296 34.071 c -0.553 0 -1 -0.448 -1 -1 V 2.78 c 0 -0.43 -0.351 -0.78 -0.781 -0.78 h -67.03 c -0.43 0 -0.78 0.35 -0.78 0.78 v 30.291 c 0 0.552 -0.448 1 -1 1 s -1 -0.448 -1 -1 V 2.78 c 0 -1.533 1.247 -2.78 2.78 -2.78 h 67.03 c 1.533 0 2.781 1.247 2.781 2.78 v 30.291 C 81.296 33.623 80.849 34.071 80.296 34.071 z" style="stroke: none; stroke-width: 1; stroke-dasharray: none; stroke-linecap: butt; stroke-linejoin: miter; stroke-miterlimit: 10; fill: rgb(0,0,0); fill-rule: nonzero; opacity: 1;" transform=" matrix(1 0 0 1 0 0) " stroke-linecap="round" />
	<path d="M 72.183 9.959 H 57.999 c -0.553 0 -1 -0.448 -1 -1 s 0.447 -1 1 -1 h 14.184 c 0.553 0 1 0.448 1 1 S 72.735 9.959 72.183 9.959 z" style="stroke: none; stroke-width: 1; stroke-dasharray: none; stroke-linecap: butt; stroke-linejoin: miter; stroke-miterlimit: 10; fill: rgb(0,0,0); fill-rule: nonzero; opacity: 1;" transform=" matrix(1 0 0 1 0 0) " stroke-linecap="round" />
	<path d="M 72.183 17.369 H 16.324 c -0.552 0 -1 -0.448 -1 -1 s 0.448 -1 1 -1 h 55.859 c 0.553 0 1 0.448 1 1 S 72.735 17.369 72.183 17.369 z" style="stroke: none; stroke-width: 1; stroke-dasharray: none; stroke-linecap: butt; stroke-linejoin: miter; stroke-miterlimit: 10; fill: rgb(0,0,0); fill-rule: nonzero; opacity: 1;" transform=" matrix(1 0 0 1 0 0) " stroke-linecap="round" />
</g>
</svg>